<?xml version="1.0" encoding="UTF-8"?>
<!DOCTYPE svg PUBLIC "-//W3C//DTD SVG 1.1//EN" "http://www.w3.org/Graphics/SVG/1.1/DTD/svg11.dtd">
<!-- Creator: CorelDRAW 2021 (64-Bit) -->
<svg xmlns="http://www.w3.org/2000/svg" xml:space="preserve" width="57.5568mm" height="57.5568mm" version="1.1" style="shape-rendering:geometricPrecision; text-rendering:geometricPrecision; image-rendering:optimizeQuality; fill-rule:evenodd; clip-rule:evenodd"
viewBox="0 0 3437.43 3437.43"
 xmlns:xlink="http://www.w3.org/1999/xlink"
 xmlns:xodm="http://www.corel.com/coreldraw/odm/2003">
 <defs>
  <style type="text/css">
   <![CDATA[
    .str0 {stroke:#094B84;stroke-width:31.61;stroke-linecap:round;stroke-linejoin:round;stroke-miterlimit:22.9256}
    .fil0 {fill:#FEFEFE}
    .fil1 {fill:#0888B9}
    .fil2 {fill:#094B84}
    .fil3 {fill:url(#id0)}
    .fil4 {fill:url(#id1)}
   ]]>
  </style>
  <linearGradient id="id0" gradientUnits="userSpaceOnUse" x1="1570.55" y1="1513.82" x2="1833.33" y2="2397.33">
   <stop offset="0" style="stop-opacity:1; stop-color:#E4B208"/>
   <stop offset="1" style="stop-opacity:1; stop-color:#FFED00"/>
  </linearGradient>
  <linearGradient id="id1" gradientUnits="userSpaceOnUse" x1="2866.03" y1="1787.59" x2="1093.39" y2="184.83">
   <stop offset="0" style="stop-opacity:1; stop-color:#094B84"/>
   <stop offset="0.580392" style="stop-opacity:1; stop-color:#1CBCE0"/>
   <stop offset="1" style="stop-opacity:1; stop-color:#094B84"/>
  </linearGradient>
 </defs>
 <g id="Capa_x0020_1">
  <metadata id="CorelCorpID_0Corel-Layer"/>
  <circle class="fil0 str0" cx="1718.71" cy="1718.71" r="1702.91"/>
  <g id="_1752534684224">
   <rect class="fil1" x="1174.85" y="2709.85" width="1082.24" height="156.15" rx="78.08" ry="78.08"/>
   <rect class="fil1" x="1231.41" y="2940" width="969.12" height="156.15" rx="69.92" ry="78.08"/>
   <path class="fil2" d="M1715.97 3346.34c136.58,0 256.78,-70.07 326.67,-176.2l-653.34 0c69.89,106.13 190.08,176.2 326.67,176.2z"/>
   <path class="fil3" d="M690.96 1050.36c-1.65,7.43 -3.15,14.42 -4.5,20.63 -7.63,50.85 -11.62,102.9 -11.62,155.88 0,263.5 97.88,504.11 259.21,687.57l-0.04 0.06 0 0.08c133.93,156.73 214.85,360.12 214.85,582.44 0,7.41 -0.1,14.79 -0.27,22.16 -1.82,74.3 -8.74,145.31 107.26,145.31 330.25,0 588.07,0 921.38,0 115.99,0 109.08,-71.01 107.26,-145.31 -0.18,-7.36 -0.27,-14.75 -0.27,-22.16 0,-202.12 66.88,-388.61 179.68,-538.59 19.92,-26.5 40.23,-49.06 60.89,-74.44 8.1,-9.96 24.59,-28.43 44.99,-50.93l-86.45 -101.49c-299.96,-355.27 -624.46,-257.69 -802.53,-250.53 -468.17,18.82 -727.76,-122.77 -989.84,-430.67z"/>
   <g>
    <rect class="fil0" x="1307.63" y="1945.91" width="226.77" height="726.1"/>
    <rect class="fil0" x="1602.58" y="1769.04" width="226.77" height="902.97"/>
    <rect class="fil0" x="1897.54" y="2197.26" width="226.77" height="474.76"/>
   </g>
   <path class="fil4" d="M727.84 778.3l87.2 88.69c12.2,12.4 14.78,35.43 6.96,53.07l-54.8 123.61c-7.39,16.67 -22,21.12 -32.41,8.04l-71.76 -90.22c-9.82,-12.34 -12.92,-36.79 -7.61,-53.24l39.36 -122.07c5.57,-17.28 21.25,-19.88 33.05,-7.88zm158.74 154.25l101.99 83.89c14.37,11.82 17.61,34.05 8.27,51.53l-65.89 123.27c-8.95,16.75 -27.54,21.89 -40.66,10.1l-92.64 -83.21c-12.6,-11.31 -15.87,-35.36 -8.27,-52.04l56.54 -123.95c8.06,-17.65 27.16,-20.69 40.66,-9.59zm186.14 144.5l120.9 74.3c17.51,10.75 23.54,30.63 13.49,47.76l-70.45 120.01c-9.44,16.08 -32.24,23.36 -49.37,13.01l-117.86 -71.22c-15.58,-9.41 -19.86,-33.08 -10.88,-49.65l66.76 -123.09c9.49,-17.49 30.97,-21.23 47.41,-11.13zm222.89 124.63l149.17 54.96c21.95,8.09 32.33,23.32 22.83,39.21l-66.98 112.13c-9.05,15.15 -36.06,26.18 -58.93,19l-152.65 -47.93c-20,-6.28 -27.51,-27.63 -18.05,-43.66l70.46 -119.33c9.9,-16.76 34.22,-21.72 54.14,-14.38zm277.69 83.55l192.01 13.18c29.08,1.99 46.27,8.75 38.71,22.25l-53.49 95.53c-7.36,13.14 -38.5,29.7 -70.02,29.96l-204.84 1.71c-25.76,0.22 -39.64,-16.38 -30.66,-31.5l65.68 -110.6c9.25,-15.57 37.77,-22.24 62.62,-20.54zm351.41 4.28l169.83 15.07c20.11,1.78 31.04,17.95 25.22,28.93l-40.66 76.7c-5.54,10.45 -26.92,12.29 -47.62,12.32l-179.84 0.35c-31.25,0.06 -50.22,-1.41 -43.27,-14.04l50.67 -92.1c7.21,-13.11 36.78,-29.78 65.67,-27.22zm273.99 46.05l118.51 58.21c15.98,7.85 23.34,25.33 18.05,34.59l-37.4 65.4c-5.23,9.15 -21.36,6.78 -37.62,0.17l-120.91 -49.13c-17.42,-7.08 -28.45,-17.2 -23.05,-27.39l39.58 -74.65c5.68,-10.71 25.88,-15.52 42.84,-7.19zm198.31 114.88l97.64 91.24c13.8,12.89 20.2,32.79 15,40.92l-37.18 58.21c-5.28,8.28 -19.95,1.71 -33.92,-10.45l-97.64 -84.91c-13.17,-11.47 -20.63,-25.08 -15.43,-34.07l37.18 -64.37c5.18,-8.97 21.29,-8.78 34.35,3.43zm168.75 173.76l97.2 125.15c13.96,17.97 24.12,37.62 19.36,44l-35.23 47.08c-5.01,6.69 -24.58,0.75 -38.49,-15.58l-98.72 -115.9c-13.01,-15.27 -18.36,-33.17 -13.05,-41.43l36.97 -57.52c5.04,-7.85 19.43,-1.94 31.96,14.21zm-1706.36 -1055.28l100.24 85.77c14.21,12.15 14.17,34.47 1.96,51.36l-86.11 119.16c-11.56,15.99 -30.58,20.57 -43.27,8.04l-89.37 -88.17c-12.3,-12.13 -14.6,-36.49 -4.57,-52.04l75.24 -116.76c10.72,-16.63 32.18,-19.09 45.88,-7.36zm179.18 150.48l108.07 83.38c15.09,11.63 15.5,33.59 2.39,50.67l-91.98 119.84c-12.37,16.12 -33.86,21.08 -48.49,9.25l-103.3 -83.55c-13.8,-11.17 -16.2,-35.48 -4.35,-51.7l87.2 -119.33c12.46,-17.06 35.68,-19.95 50.45,-8.56zm193.97 145.01l120.69 76.7c16.98,10.79 20.23,31.51 7.39,47.93l-91.76 117.44c-12.43,15.91 -36.97,22.71 -54.37,11.99l-121.34 -74.81c-16.27,-10.03 -19.47,-33.8 -6.96,-49.99l92.42 -119.67c13.16,-17.04 37.64,-19.94 53.93,-9.59zm218.76 130.8l140.91 62.32c20.38,9.01 27.51,25.61 15.87,41.08l-83.07 110.43c-11.32,15.06 -38.72,24.83 -60.45,16.6l-148.3 -56.15c-19.74,-7.47 -25.56,-29.53 -13.26,-45.37l90.68 -116.76c12.88,-16.58 39,-20.39 57.62,-12.16zm258.99 99.47l172.88 29.79c25.78,4.44 39,13.96 30,27.22l-64.36 94.85c-8.8,12.97 -38.81,27.22 -67.63,24.82l-189.62 -15.75c-24.43,-2.02 -35.86,-20.34 -24.78,-35.27l80.89 -109.05c11.38,-15.35 39.82,-20.53 62.63,-16.61zm314.44 37.67l153.52 32.18c19.09,4 27.08,21.35 20.66,32.02l-46.31 76.86c-6.31,10.48 -26.33,11.54 -46.54,9.42l-167.88 -17.63c-28.37,-2.99 -44.95,-7.63 -36.75,-20.03l60.67 -91.76c8.55,-12.92 37.5,-26.33 62.63,-21.06zm249.85 72.76l110.9 68.14c15.15,9.3 21.34,27.41 16.09,36.63l-38.06 66.77c-5.12,8.99 -20.5,6.8 -36.53,-1.37l-117.64 -59.92c-16.9,-8.61 -27.74,-20.79 -21.53,-31.16l44.8 -74.81c6.34,-10.59 26.18,-13.98 41.97,-4.28zm186.36 130.79l92.86 97.41c13.37,14.02 19.03,34.3 14.57,42.63l-32.4 60.43c-4.49,8.39 -18.28,1.86 -32.18,-11.29l-97.2 -91.94c-13.03,-12.31 -21.07,-27.6 -15.87,-36.81l36.96 -65.57c5.17,-9.16 21.05,-7.69 33.27,5.13zm160.48 184.21l90.47 135.08c13.53,20.19 22.06,43.47 18.48,50.5l-25.44 49.99c-3.46,6.8 -19.77,-2.24 -33.7,-20.54l-96.33 -126.52c-12.46,-16.37 -19.65,-35.7 -15.22,-43.99l31.75 -59.41c4.52,-8.47 18.55,-2.21 30,14.89zm-1559.8 -1138.31l108.07 81.32c15.01,11.29 9.69,29.54 -7.83,45.37l-120.47 108.88c-15.86,14.34 -39.24,18.6 -53.49,6.68l-101.77 -85.09c-13.96,-11.67 -14.67,-35.26 0.44,-49.13l114.17 -104.77c16.65,-15.29 45.88,-14.54 60.89,-3.25zm190.05 143.46l108.95 81.32c15.05,11.23 10.33,30.31 -7.17,46.23l-121.78 110.77c-16.4,14.92 -40.55,19.65 -55.67,8.05l-108.51 -83.21c-14.79,-11.35 -15.09,-34.89 1.09,-49.48l121.12 -109.23c17.61,-15.87 47.06,-15.58 61.97,-4.45zm192.88 142.61l114.39 77.72c16.02,10.88 13.86,29.19 -2.61,44.86l-115.69 110.08c-15.67,14.91 -41.78,20.78 -58.93,9.76l-119.81 -77.04c-16.24,-10.45 -16.92,-34.07 -0.66,-48.96l121.12 -110.94c17.32,-15.86 46.52,-16.13 62.19,-5.48zm205.28 133.88l126.78 68.14c17.94,9.64 19.42,25.64 5,40.4l-102.2 104.6c-13.84,14.16 -41.33,22.31 -61.32,13.18l-138.74 -63.34c-18.76,-8.57 -21.92,-30.79 -6.52,-45.54l114.6 -109.75c16.22,-15.53 45.26,-16.91 62.4,-7.7zm230.5 112.82l148.74 44.34c21.3,6.35 28.73,17.37 17.83,29.96l-78.5 90.74c-10.74,12.4 -39.48,23.74 -64.58,19l-169.62 -32.01c-22.25,-4.2 -30.1,-23.77 -16.75,-37.66l99.38 -103.41c14,-14.57 43.21,-17 63.5,-10.96zm268.34 67.63l131.78 47.76c16.96,6.15 20.74,23.01 13.05,33.38l-55.23 74.47c-7.54,10.17 -26.72,10.15 -45.45,5.82l-150.48 -34.76c-24.41,-5.64 -38.13,-13.26 -28.05,-25.17l74.37 -87.82c10.31,-12.18 39.24,-21.23 60.01,-13.69zm216.15 96.73l97.86 76.36c13.75,10.73 17.31,28.4 11.53,37.49l-41.97 65.91c-5.67,8.92 -20.59,6.03 -35.67,-3.6l-108.94 -69.5c-15.53,-9.91 -24.71,-23.7 -17.4,-33.73l53.06 -72.75c7.38,-10.12 27.57,-11.07 41.54,-0.17zm165.26 143.64l82.63 101.86c11.87,14.63 16.12,35 11.74,43.48l-31.53 61.12c-4.28,8.31 -16.99,1.82 -30.01,-12.15l-91.55 -98.27c-12.23,-13.13 -19.67,-29.63 -14.14,-38.51l40.45 -64.89c5.64,-9.05 21.27,-6.35 32.4,7.36zm142.65 191.91l78.29 142.96c12.31,22.48 18.53,49.06 15.87,56.32l-19.14 52.22c-2.74,7.48 -15.99,-5 -29.36,-25.51l-88.72 -136.11c-11.39,-17.48 -18.31,-37.23 -14.13,-45.71l29.79 -60.43c4.13,-8.39 17.52,-1.77 27.39,16.26zm-1337.78 -1179.4l110.9 73.61c15.31,10.16 6.57,25.87 -15.87,38.01l-159.18 86.11c-21.55,11.66 -48.68,14.51 -63.71,3.43l-108.95 -80.3c-15.18,-11.19 -12.71,-32.19 8.26,-42.8l157.44 -79.61c22.28,-11.26 55.74,-8.65 71.11,1.54zm192.01 131.31l104.6 76.36c14.22,10.38 5.61,27.25 -16.09,40.06l-154.83 91.42c-20.94,12.36 -47.92,15.56 -62.84,4.45l-108.52 -80.81c-14.84,-11.05 -12.04,-32.75 9.13,-44.34l159.18 -87.14c22.35,-12.23 54.95,-10.52 69.37,0zm182.45 134.73l103.29 75.84c14.31,10.51 7.94,27.41 -11.96,40.4l-143.96 93.99c-19.4,12.67 -46.76,17.11 -62.62,6.16l-112.86 -77.9c-15.52,-10.71 -13.32,-32.63 7.39,-45.02l153.96 -92.1c21.54,-12.89 52.57,-11.79 66.76,-1.37zm182.67 132.17l107.64 70.71c15.04,9.88 11.77,25.46 -5.44,38.18l-124.38 91.94c-16.91,12.49 -44.48,18.36 -62.19,8.56l-123.95 -68.65c-17.1,-9.48 -16.38,-30.52 2.82,-43.32l141.34 -94.16c19.63,-13.08 49.34,-12.98 64.15,-3.25zm193.09 120.35l118.73 56.33c16.71,7.92 19.25,20.34 6.09,31.5l-95.46 80.98c-13,11.03 -40.44,18.8 -61.11,12.15l-144.39 -46.39c-19.63,-6.31 -22.94,-25.69 -6.52,-38.01l121.12 -90.91c16.91,-12.69 45.17,-13.41 61.54,-5.65zm212.67 92.79l104.81 60.27c14.12,8.12 14.54,24.41 5.22,33.9l-66.54 67.79c-9.27,9.45 -27.18,8.15 -43.7,1.71l-128.08 -49.82c-20.09,-7.81 -29.31,-17.89 -16.96,-28.59l90.46 -78.41c12.46,-10.8 39.05,-15.9 54.8,-6.85zm173.09 115.22l79.81 81.66c11.29,11.55 12.83,28.94 6.31,37.49l-47.62 62.49c-6.68,8.77 -20.84,5.13 -34.14,-5.65l-95.68 -77.56c-13.34,-10.81 -19.5,-25.64 -10.87,-34.75l63.28 -66.77c8.78,-9.26 27.83,-8.27 38.93,3.08zm135.04 151.34l67.41 103.58c9.57,14.7 12.12,35.24 7.82,43.49l-31.75 60.95c-4.39,8.43 -16.1,1.41 -27.62,-13.19l-80.67 -102.2c-10.86,-13.76 -16.27,-30.79 -10,-39.37l45.23 -61.98c6.27,-8.59 20.55,-5.14 29.57,8.73zm115.47 194.32l61.11 148.25c10.1,24.49 13.74,53.82 11.74,61.63l-14.13 55.3c-1.92,7.5 -11.94,-7.57 -23.92,-30.3l-75.89 -143.98c-9.53,-18.1 -15.61,-38.1 -11.53,-46.57l29.36 -60.95c4.06,-8.43 15.81,-1.48 23.26,16.61zm-1042.47 -1148.76l108.51 61.12c14.71,8.29 1.68,16.64 -26.1,23.63l-194.62 48.96c-26,6.54 -57.19,8.23 -72.41,-1.71l-110.69 -72.25c-15.52,-10.13 -8.96,-27.62 17.4,-32.7l197.02 -38c28.33,-5.46 65.49,2.28 80.89,10.95zm184.83 110.09l94.81 66.26c12.85,8.97 -0.51,19.62 -26.74,28.08l-185.06 59.57c-24.71,7.96 -54.59,9.99 -68.72,-0.34l-103.07 -75.33c-14.39,-10.52 -6.79,-28.96 19.14,-35.78l193.32 -50.85c27.55,-7.24 63.08,-0.86 76.33,8.39zm163.09 117.96l86.33 68.82c11.9,9.48 0.95,21.36 -22.83,30.82l-168.75 67.11c-23.05,9.17 -51.88,11.98 -65.89,1.54l-100.68 -74.99c-13.98,-10.42 -7.05,-29.87 17.83,-38.17l183.1 -61.12c25.71,-8.58 58.9,-3.56 70.89,6zm150.7 121.21l83.28 68.14c11.44,9.35 2.72,22.25 -17.4,32.02l-144.83 70.36c-19.91,9.68 -46.66,13.19 -61.32,3.25l-104.16 -70.53c-14.46,-9.79 -9.01,-29.2 13.7,-38.52l165.92 -68.14c23.15,-9.51 53.07,-6.18 64.8,3.42zm146.34 118.98l84.15 63.17c11.4,8.56 7.38,20.75 -7.83,29.62l-110.68 64.54c-15.31,8.93 -40.18,13.45 -55.89,5.48l-114.17 -57.87c-15.72,-7.97 -13.87,-26.49 5.44,-36.13l140.69 -70.19c19.47,-9.71 46.32,-7.59 58.27,1.37zm148.3 108.71l72.63 67.96c9.84,9.2 6.64,23.7 -3.92,31.5l-77.19 57.01c-10.63,7.85 -27.04,5.9 -40.45,-2.4l-100.24 -61.97c-14.98,-9.26 -18.84,-21.25 -4.35,-29.96l104.81 -63c14.59,-8.77 38.11,-9.05 48.7,0.85zm120.91 124.97l56.54 81.83c8,11.58 7.01,27.76 -0.22,35.44l-53.27 56.67c-7.37,7.84 -20.15,4.33 -30.88,-7.19l-76.54 -82.18c-10.56,-11.35 -13.77,-26.64 -3.7,-34.41l73.29 -56.49c10.03,-7.74 26.99,-4.95 34.79,6.33zm95.68 149.97l46.54 99.81c6.73,14.43 7.47,34.29 3.05,42.63l-32.18 60.61c-4.48,8.43 -14.11,1.7 -23.48,-13.35l-64.37 -103.24c-8.69,-13.94 -11.77,-30.85 -4.78,-38.87l49.8 -57.18c6.74,-7.73 19.21,-3.78 25.44,9.59zm79.37 187.64l38.71 148.09c6.89,26.33 7.69,58.08 6.31,66.76l-9.57 60.09c-1.28,8.09 -7.06,-8.76 -16.75,-33.55l-58.06 -148.6c-7.05,-18.06 -11.77,-38.7 -7.83,-46.91l29.35 -61.29c4.04,-8.44 13.26,-2.1 17.83,15.4zm-689.33 -1000.83l101.55 39.55c13.63,5.3 -1.62,3.66 -33.27,1.88l-222.89 -12.5c-30.4,-1.7 -65.65,-4.54 -80.24,-12.49l-107.43 -58.55c-15.38,-8.39 -3.44,-17.6 27.62,-13.35l228.98 31.33c32.91,4.5 70.9,18.39 85.68,24.14zm170.05 73.27l80.46 47.08c10.7,6.26 -5.42,8.76 -34.58,9.76l-209.19 7.19c-28.65,0.98 -60.61,-1.02 -73.28,-9.76l-92.86 -64.03c-13.07,-9.02 -0.43,-20.44 30.01,-19.18l220.93 9.25c31.63,1.32 66.82,12.86 78.51,19.69zm135.69 85.43l65.67 52.73c8.97,7.2 -6.06,12.55 -32.18,15.92l-188.54 24.31c-26.13,3.36 -55.57,2.28 -66.98,-6.85l-83.72 -66.94c-11.75,-9.4 0.46,-22.93 29.14,-24.31l206.15 -9.93c29.14,-1.4 61.04,7.51 70.45,15.06zm111.12 94.5l54.58 57.01c7.27,7.58 -5.97,16.04 -27.83,21.06l-160.26 36.81c-22.07,5.06 -48.05,4.6 -58.93,-4.62l-79.37 -67.28c-11.09,-9.41 -0.1,-23.88 25.66,-27.56l184.62 -26.37c25.66,-3.67 53.84,2.91 61.54,10.96zm91.98 101.86l44.79 61.12c6.24,8.5 -3.74,19.02 -20.22,24.48l-121.34 40.23c-17.24,5.72 -39.29,5.3 -50.02,-3.43l-78.28 -63.68c-10.98,-8.94 -3.42,-23.61 18.48,-28.94l155.04 -37.67c21.24,-5.16 45.18,-0.79 51.54,7.88zm75.89 109.4l36.1 66.26c5,9.19 -1.22,21.48 -12.4,27.05l-83.5 41.6c-11.77,5.86 -26.84,2.37 -36.1,-7.01l-67.41 -68.32c-9.65,-9.77 -7.01,-21.42 9.13,-27.04l115.03 -40.06c15.57,-5.42 34.04,-1.83 39.14,7.53zm61.11 118.64l28.92 73.1c4.17,10.52 0.99,25.47 -6.52,32.36l-55.23 50.67c-7.83,7.18 -19.08,2.77 -26.53,-8.73l-52.62 -81.15c-7.32,-11.29 -5.8,-24.92 5.43,-30.98l78.72 -42.46c10.72,-5.78 23.87,-2.82 27.84,7.19zm48.27 132.68l21.97 87.65c3.18,12.71 2.29,32.61 -1.96,41.61l-30.01 63.51c-4.1,8.68 -12,2.32 -18.26,-11.98l-43.27 -98.79c-5.67,-12.96 -5.38,-28.88 1.74,-36.12l51.54 -52.39c7.09,-7.2 15.44,-4.73 18.26,6.51zm35.66 165.2l11.75 139.53c2.28,27.13 1.3,61.47 0.87,72.76l-2.82 72.42c-0.36,9.26 -2.68,-8.11 -8.92,-34.59l-34.79 -147.74c-4.02,-17.1 -5.95,-37.17 -2.39,-46.06l26.31 -65.57c3.81,-9.48 8.71,-6.12 10,9.25z"/>
  </g>
 </g>
</svg>
